<svg width="150" height="1500" viewBox="0 -500 198 525" fill="none" xmlns="http://www.w3.org/2000/svg">
    <path d="M54.31 40.9935C54.13 48.4256 53.28 48.4594 53.28 56.271C53.28 66.097 55.7099 87.668 49.6899 95.19C48.4799 96.7 49.78 99.117 48.79 100.798C46.69 104.373 43.9799 102.785 43.0699 107.752C42.1399 112.905 35.98 120.141 33.54 125.024C31.74 128.622 28.52 131.241 26.59 135.118C23.4 141.482 19.09 146.217 16.04 153.176C9.95003 167.101 9.75004 182.329 3.93004 196.469C-1.89996 210.617 2.81005 235.086 2.81005 250.641C2.81005 274.63 -1.54 302.61 3.26 326.012C7.95 348.892 10.88 374.957 10.88 398.354C10.88 414.872 14.92 431.306 14.92 448.152C14.92 459.301 18.9599 469.222 18.9599 480.342C18.9599 492.07 22.85 493.875 29.05 502.998C37.45 515.34 65.25 532.972 78.51 519.709C87.69 510.534 92.52 512.012 102.74 517.691C108.06 520.646 121.18 526.114 126.97 521.616C136.17 514.459 135.66 509.978 148.17 516.232C157.58 520.942 163.06 523.999 174.41 522.738C179.26 522.199 187.4 502.116 188.43 497.502C189.74 491.615 187.79 486.154 190.11 480.342C192.7 473.874 193.77 463.176 194.48 456.107L194.49 456.003C198.2 418.878 196.62 380.455 196.62 343.06V252.212C196.62 238.926 194 219.98 190.11 207.348C188.42 201.863 189.55 195.892 187.53 190.637C185.14 184.428 182.86 178.136 182.49 171.458C182.13 165.002 174.71 148.472 169.36 144.315C163.04 139.396 160.69 131.721 155.12 126.146C150.37 121.394 144.47 113.32 138.07 109.322C136.07 108.07 124.02 94.166 123.94 92.722C123.46 84.523 115.86 80.106 115.86 70.964C115.86 66.137 111.83 63.444 111.83 59.299C111.83 53.509 113.06 47.1268 109.81 42.2511H61.47C54.71 42.2511 52.2099 38.2134 46.2099 38.2134C37.5999 38.2134 52.43 30.138 56.87 30.138H80.34M80.34 30.138C74.77 30.0359 68.29 29.7673 66.63 29.1286C64.27 28.2242 40.23 28.7431 43.41 23.1842C44.19 21.8197 52.33 20.5915 54.29 20.1559C57.04 19.5441 65.3 18.0249 62.48 18.0249C57.82 18.0249 40.64 24.9039 41.17 16.006C41.47 10.7666 54.7099 9.78041 61.7099 9.73141M61.7099 9.73141C52.8599 8.58101 37.96 3.2244 55.3 1.9862C74.31 0.627905 94.77 0.752006 113.84 1.87411C118.04 2.12071 116.38 14.6758 112.72 16.006C93.87 22.8616 115.94 15.5124 117.66 22.3991C121.83 39.0875 105.2 38.2134 97.6899 38.2134M2.81005 197.703C3.45005 200.291 13.79 201.781 16.49 203.759C24.54 209.663 36.16 214.276 46.1 215.648C61.31 217.746 80.66 217.347 95.56 214.863C116.36 211.397 136.76 205.396 157.14 200.17C161.15 199.142 165.45 200.101 168.47 196.581C170.44 194.278 172.17 190.745 174.41 189.627M14.92 425.833C16.01 435.617 43.22 449.293 51.26 450.059C59.1 450.805 66.18 456.004 74.48 457.125C87.54 458.89 100.9 458.134 114.07 458.134C125.98 458.134 140.54 460.523 152.2 457.686C158.51 456.152 163.75 452.879 170.15 451.966C182.44 450.21 186.87 440.799 196.62 435.927M55.14 343.416C61.59 350.941 67.18 359.917 71.47 368.821C71.67 369.24 72.09 370.073 72.62 371.194M72.62 371.194C75.47 373.648 77.7499 375.798 78.7099 376.549C79.0799 376.835 83.04 380.292 83.64 379.737C87.02 376.597 88.11 368.852 89.05 364.619C90.24 359.268 92.5299 348.156 88.4399 342.478M88.4399 342.478C90.0399 336.921 90.65 330.808 90.74 327.863C91 318.911 90.47 314.045 82.1 310.379C76.93 308.121 71.11 307.943 65.77 306.225C60.18 304.428 56.46 295.919 51.86 292.315C49.87 290.755 47.28 287.314 50.36 285.602C51.58 284.923 52.71 285.238 53.98 285.698C58.27 287.241 61.8699 287.838 66.4499 287.775C70.0599 287.725 73.32 287.584 74.27 283.525C74.51 282.517 74.6899 281.497 74.8299 280.469M74.8299 280.469C80.4299 285.542 87.8299 289.352 93.6899 293.474C97.3299 296.036 101.28 298.115 103.83 301.878C104.36 302.662 104.88 303.461 105.38 304.275M105.38 304.275C106.42 299.525 108.34 295.367 111.65 292.508C116.06 288.708 129.91 307.424 133.68 309.8C136.46 311.556 136 307.322 136.38 305.549C137.92 298.418 140.85 291.821 141.07 284.394C141.1 283.466 141.11 282.425 141.09 281.334M141.09 281.334C143.27 285.109 145.89 287.132 148.17 280.627C150.02 275.356 149.91 269.903 149.91 264.398C149.91 264.325 149.91 264.253 149.91 264.184M149.91 264.184C156.98 264.373 162.49 262.242 167.58 256.912C172.93 251.318 174.2 244.516 175.99 237.35M56.15 511.815C57.98 513.442 61.1299 515.953 63.7099 515.953C65.0099 515.953 66.94 515.583 68.1 515.034C69.1 514.561 69.71 513.654 70.86 513.654M102.59 509.975C105.68 511.851 109.15 513.047 112.27 514.804C115.81 516.791 121.43 515.101 125.12 514.574M150.42 510.435C153.48 512.048 162.36 516.426 165.13 513.654M26.72 451.574C26.72 454.974 28.22 458.797 28.86 462.15C29.37 464.806 30.27 467.264 30.37 469.993C30.46 472.438 30.3899 474.824 30.9599 477.223C31.7099 480.391 31.85 483.537 32.34 486.727C32.52 487.903 33.15 489.04 33.15 490.201M10.16 227.165C10.3 228.592 11.03 230.011 11.31 231.432C12.54 237.686 13.16 244.091 13.61 250.439C14.51 263.124 14.99 275.844 15.78 288.53C16.82 305.173 17.98 321.735 19.61 338.322C20.5 347.314 21.05 356.356 22.12 365.326C23.16 374.105 24.6 382.882 25.34 391.691C25.92 398.709 26.5599 405.71 27.0699 412.742C27.3199 416.11 26.81 420.319 28.1 423.523M15.68 186.238C15.91 178.031 20.14 170.271 23.01 162.811C25.5 156.346 28.29 150.642 32.23 144.903C35.61 139.99 40.64 135.524 44.85 131.311C48.75 127.42 52.43 122.898 55.89 118.614C58.41 115.492 61.36 111.979 63.04 108.319C65.66 102.654 65.18 95.892 65.91 89.873C66.99 80.857 67.18 72.078 67.18 62.998M80.34 30.138H86.03C92.59 30.138 87.16 30.2632 80.34 30.138ZM61.7099 9.73141C65.4699 9.70501 67.43 9.94951 64.61 9.94951C63.78 9.94951 62.7899 9.87171 61.7099 9.73141ZM72.62 371.194C75.62 377.437 82.46 392.599 77.65 394.662C72.86 396.715 65.44 396.338 62.05 392.247C57.95 387.306 54.55 380.743 53.16 374.472C52.67 372.237 51.21 364.839 52.92 362.736C56.53 358.313 66.08 365.556 72.62 371.194ZM88.4399 342.478C87.6899 341.445 86.74 340.593 85.52 339.987C80.11 337.281 77.75 338.396 76.01 344.478C74.69 349.084 73.58 353.985 79.29 353.849C83.86 353.74 86.7199 348.427 88.4399 342.478ZM74.8299 280.469C75.4599 275.732 75.09 270.83 74.22 266.185C73.85 264.209 73.25 258.753 70.31 258.361C67.25 257.952 66.54 261.342 66.54 263.577C66.54 270.81 70.0199 276.106 74.8299 280.469ZM105.38 304.275C109.62 311.139 112.84 319.014 115.42 326.511C118.73 336.103 120.68 346.467 121.7 356.553C121.86 358.167 123.65 371.251 121.89 372.347C119.25 374.003 113.04 365.421 112.19 364.04C107.32 356.201 106.75 347.059 106 338.103C105.29 329.562 102.96 315.319 105.38 304.275ZM141.09 281.334C141.02 277.88 140.53 273.921 138.61 271.45C136.94 269.312 136.86 271.787 137.4 273.092C138.23 275.118 139.55 278.664 141.09 281.334ZM149.91 264.184C149.9 262.162 149.84 261.98 151.65 263.239C157.17 267.086 160.11 253.958 161.11 250.536C162.79 244.794 162.55 241.044 155.8 241.794C148.57 242.597 135.46 252.016 139.86 260.824C141.3 263.699 145.64 263.916 148.36 264.108C148.89 264.145 149.4 264.171 149.91 264.184Z" stroke="#997740" stroke-linecap="round"/>
</svg>
