<svg width="350" height="1850" viewBox="0 600 472 584" fill="none" xmlns="http://www.w3.org/2000/svg">
    <path d="M42.0837 193C42.0837 184.07 47.9034 176.649 52.306 169.444C53.1008 168.144 54.4562 168.311 55.0282 166.5C55.5957 164.703 56.1681 162.992 57.306 161.444C58.8567 159.335 58.7325 157.701 59.8615 155.556C61.8899 151.702 63.5143 147.634 66.306 144.222C72.0846 137.159 74.7047 127.532 81.0837 120.444C85.8371 115.163 90.9831 107.167 97.0837 103.778C100.156 102.071 105.022 97.491 107.084 94.778C108.905 92.382 111.514 89.878 113.862 88C115.054 87.046 114.716 85.59 115.695 84.611C116.633 83.673 118.288 84.212 118.862 82.778C122.32 74.133 133.579 67.689 140.639 61C145.136 56.74 151.012 52.471 156.306 49.2222C159.217 47.4361 165.486 45.7304 167.306 43C168.5 41.2095 170.41 40.5798 172.306 39.7778C176.107 38.1698 182.193 33.6513 185.306 30.7778C189.194 27.1888 193.605 24.4497 197.861 21.5556C201.252 19.2503 203.776 16 208.084 16C212.057 16 215.246 14 219.084 14C226.483 14 227.084 26.8436 227.084 32.2222C227.084 41.2672 228.688 46.5618 232.861 54.444C235.014 58.511 235.084 63.127 235.084 67.778C235.084 73.004 237.271 75.894 238.861 80.667C241.604 88.895 247.703 95.565 250.861 103.778C252.699 108.555 254.822 111.775 255.084 117C255.349 122.301 257.895 128.365 259.306 133.444C260.686 138.413 262.723 144.932 265.528 149.222C269.319 155.02 270.218 161.725 272.306 168.222C274.617 175.413 275.693 182.382 278.084 189.556C280.132 195.7 283.084 204.043 283.084 210.444C283.084 213.469 286.605 218.262 287.139 222C287.919 227.46 290.221 233.606 291.584 239.056C293.215 245.58 295.702 252.031 297.139 258.5C297.993 262.34 302.008 265.234 303.084 269C303.909 271.887 306.055 275.75 307.477 278.308L307.584 278.5C309.384 281.741 310.803 284.034 312.084 287.556C312.831 289.611 318.776 300 314.584 300C309.305 300 304.973 297.834 300.318 295.506L300.195 295.444C295.202 292.948 290.971 292 285.084 292C279.807 292 274.588 289.168 269.584 288.056C266.049 287.27 262.166 285 258.584 285H248.409C245.3 285.002 240.868 285.004 242.139 280.556C243.223 276.763 237.553 276 233.584 276C229.217 276 225.366 274 220.639 274H220.408C217.244 274.002 213.424 274.004 211.639 270.944C211.09 270.003 211.525 266.34 210.528 266.056C208.067 265.352 206.301 264 203.639 264C200.093 264 193.332 262.693 190.584 260.556C188.9 259.246 186.44 260.531 184.584 259.5C182.952 258.593 181.261 257.927 179.639 257C177.365 255.7 174.346 255 171.584 255C167.398 255 163.625 254.818 159.695 253.944C155.244 252.955 156.152 248.323 154.584 245.5C152.419 241.603 144.609 238.789 140.584 237C137.273 235.529 132.564 235.762 129.584 233.444C126.472 231.024 120.839 230.433 117.084 228.556C113.698 226.863 106.239 224 102.584 224C91.7613 224 81.482 219 70.6393 219C66.7542 219 61.5843 215.793 57.5282 215.056C54.863 214.571 48.4776 212.394 46.5282 210.444C41.0083 204.925 37.4165 198.334 41.0837 191M296.084 329C289.328 329 283.639 332.543 277.084 334C271.698 335.197 266.16 335.61 260.862 337C257.516 337.878 253.417 339.606 250.028 339.944C240.105 340.937 226.782 345.413 219.639 352.556C218.679 353.515 219.681 355.341 218.528 356C216.382 357.226 215.811 359.65 213.862 361C210.044 363.643 205.242 363 200.862 363C198.27 363 192.941 362.225 191.862 365.222C190.559 368.841 187.808 368.971 184.306 370.222C179.962 371.774 174.264 373 169.584 373C166.258 373 163.875 376 160.639 376C157.138 376 156.038 379.649 153.973 379.944C149.226 380.623 149.786 382.438 146.584 385C142.146 388.55 136.697 389 130.695 389C126.083 389 118.846 387.588 114.639 389.5C107.259 392.855 97.2747 395.928 89.1393 396.944C83.1806 397.689 77.5354 403.496 72.0837 406.222C64.091 410.219 52.8509 406.771 45.8615 413.222C42.9956 415.868 38.5349 415.436 36.0837 418.5C34.8828 420.001 29.0938 418.763 28.0837 417.5C26.3426 415.324 23.8826 416.546 23.0282 413.556C22.6702 412.303 20.4553 411.872 19.8615 410.222C19.1335 408.2 19.2556 405.486 17.5837 404C14.4616 401.225 17.3088 393.793 14.0837 391.778C11.8477 390.38 11.0837 382.613 11.0837 380C11.0837 371.056 11.2416 363.258 8.30595 354.778C6.74522 350.269 7.56909 345.801 6.30595 341.222C5.10534 336.87 5.08373 332.496 5.08373 328C5.08373 318.281 5.45716 308.487 5.08373 298.778C4.69852 288.762 0.154795 279.782 1.13928 269.444C1.6046 264.559 4.08373 259.276 4.08373 254.5C4.08373 250.595 8.08373 246.376 8.08373 242.444C8.08373 236.058 14.7089 229.746 15.0837 223C15.4361 216.658 21.9997 213.074 28.0837 215.778C31.009 217.078 34.1725 219.061 35.1393 222.444C35.7911 224.726 43.8357 226 45.6393 226C53.8421 226 62.0554 225.654 69.5837 229C71.6501 229.918 75.5744 233.613 77.0837 235.5C78.3453 237.077 87.7034 238.427 90.0282 239.444C92.0934 240.348 94.3338 239.434 96.0837 241C98.1716 242.868 100.714 244 103.528 244C107.704 244 111.472 247.207 115.528 247.944C123.029 249.308 130.431 248.745 137.862 251.222C147.11 254.305 157.611 256.499 165.862 262C170.064 264.802 175.507 265.529 180.139 267.556C185.465 269.886 190.258 273.705 196.084 275C206.531 277.322 217.446 282.367 227.584 285.944C238.588 289.828 251.101 291.084 262.084 294.222C266.873 295.591 273.054 298.98 277.084 301.778C280.01 303.81 283.754 302.861 286.417 304.556C287.956 305.535 289.224 306.897 291.084 307.778C294.605 309.446 294.545 309.674 296.306 313C297.835 315.887 298.878 316.239 300.862 318.222C305.535 322.896 301.094 328 295.084 328M35.0837 442C35.0837 434.082 45.9716 428.153 52.1393 424.556C54.3461 423.268 60.3712 423 62.8615 423H73.0837C80.2224 423 86.7234 417.209 92.6393 413.444C99.2852 409.215 106.768 404.213 114.084 400.556C123.215 395.99 134.919 398.582 144.084 394C148.84 391.622 153.334 390.062 158.084 387.556C161.956 385.512 166.906 380.314 171.306 380C182.685 379.187 193.632 373.48 205.028 372.056C208.509 371.62 211.448 368.95 214.639 367.5C219.328 365.369 222.99 363.642 228.084 361.944C233.69 360.076 239.074 356.172 245.084 356C253.184 355.769 261.256 353.543 268.862 350.778C275.4 348.4 281.964 340.396 289.084 340C291.705 339.854 296.32 337.757 298.584 336.5C302.638 334.247 307.718 333.94 311.639 331.444C314.794 329.437 317.927 325.648 320.084 330.5C321.617 333.949 321.084 337.728 321.084 341.5C321.084 343.963 318.054 347.063 316.084 348.222C313.65 349.654 312.811 354.618 310.084 356.222C306.214 358.499 304.707 364.131 301.306 366.444C297.806 368.824 296.718 373.829 293.862 376C288.234 380.277 282.02 392.009 281.139 399.056C279.883 409.106 276.647 413.973 269.639 421.5C266.888 424.455 264.27 430.337 261.528 432.222C258.73 434.146 260.182 440.195 258.084 442.556C256.631 444.19 257.232 446.264 256.084 448.222C255.2 449.73 253.084 451.775 253.084 453.5C253.084 456.306 253.636 459.764 253.028 462.5C252.511 464.829 247.997 467.266 246.084 468.222C242.172 470.178 243.084 473.447 243.084 477.222C243.084 479.142 244.133 486.506 242.861 487.778C242.118 488.521 239.733 488.551 238.584 489.444C237.193 490.526 234.561 491.255 232.861 491.778C231.334 492.248 229.654 491.908 228.084 492C226.976 492.065 225.977 493.673 224.639 494.056C223.862 494.277 219.331 502.024 219.084 502.889C217.256 509.285 208.032 516.163 203.639 520.556C197.7 526.495 195.679 535.479 191.084 542.778C189.486 545.315 189.025 547.937 187.861 550.556C186.455 553.721 182.318 557.322 179.861 559.778C177.256 562.384 175.326 565.423 172.584 567.556C170.74 568.99 171.721 570.281 170.861 572C170.011 573.702 167.567 574.576 167.139 576.5C166.381 579.913 161.773 583.55 158.139 582.944C153.653 582.197 149.686 576.579 144.973 576.056C133.616 574.794 119.808 571.672 111.306 563.778C102.183 555.307 89.3961 547.047 83.0837 536C81.0652 532.468 76.767 528.195 74.0282 525C70.0281 520.333 68.2849 514.402 65.5837 509C60.5889 499.01 54.7104 488.723 50.9726 478.444C49.4423 474.236 45.2941 471.076 43.8615 466.778C43.0536 464.354 42.065 464.333 40.6393 462.5C39.3432 460.834 39.7119 458.34 38.306 456.778C34.1819 452.195 34.0837 445.151 34.0837 439M326.084 295C328.964 292.12 334.014 287.758 335.306 284C335.777 282.628 338.914 278.835 340.306 278.222C342.82 277.116 342.4 274.783 344.084 273C350.009 266.726 355.084 260.279 355.084 251.5C355.084 243.77 364.357 238.635 367.084 232.5C368.084 230.25 370.553 229.171 371.028 226.556C371.435 224.315 371.084 221.784 371.084 219.5C371.084 215.578 370.084 211.723 370.084 208C370.084 205.261 373.589 201.13 375.306 199.222C378.46 195.718 378.925 191.203 381.528 187.222C388.439 176.653 392.136 163.902 398.528 152.944C399.077 152.003 398.643 148.34 399.639 148.056C401.545 147.511 403.247 146.464 404.639 144.944C407.758 141.542 414.166 136.296 415.028 131.556C415.848 127.047 418.047 122.913 419.028 118.5C420.148 113.461 423.335 111.744 426.639 107.222C428.603 104.536 432.606 101.945 435.195 99.667C437.853 97.327 438.199 94.421 439.306 91.222C441.157 85.874 444.228 80.974 446.862 76C448.289 73.304 451.298 71.357 453.084 68.778C455.936 64.658 459.096 61.267 461.528 57.444C463.643 54.121 464.204 49.9107 466.584 47.0556C469.417 43.6559 471.084 37.5397 471.084 33.0556C471.084 28.0805 471.944 26.4597 467.639 24C464.477 22.1931 461.405 22.254 458.084 20.7778C453.543 18.7597 447.779 20.2909 442.862 18.7778C438.062 17.3011 432.754 18.8533 428.084 16.7778C424.222 15.0613 420.123 15.0502 416.306 13.7778C412.91 12.6459 409.71 10.8621 406.084 10.2222C402.46 9.5827 399.218 9.8552 395.695 8.5C386.183 4.8417 375.196 6 365.084 6C358.834 6 353.165 2.1466 346.862 2C341.568 1.8769 336.874 1 331.584 1C310.078 1 288.93 3 267.306 3C262.044 3 257.786 5.8881 252.862 6C248.682 6.095 246.457 9.8016 243.084 10C236.296 10.3993 234.084 17.6647 234.084 23.5C234.084 31.2054 238.151 37.1877 240.584 44C241.711 47.1567 241.084 51.225 241.084 54.556C241.084 59.135 242.843 62.663 243.084 67C243.235 69.724 246.572 75.766 248.084 78.222C250.6 82.311 253.83 86.711 255.862 91C259.568 98.824 268.402 105.385 267.028 115C266.448 119.059 260.699 117.402 262.139 122.444C262.905 125.125 267.185 126.314 268.528 129C270.269 132.481 267.718 137.141 269.584 140.5C271.696 144.302 273.503 149.034 277.862 150.778C281.182 152.106 278.22 159.543 278.084 162C277.892 165.456 279.588 168.023 280.084 171C281.737 180.918 295.084 187.456 295.084 197.5C295.084 205.19 296.084 212.986 296.084 220.5C296.084 224.028 298.91 231.288 300.639 234.5C303.461 239.74 305.247 245.931 309.084 250.444C311.918 253.779 312.816 259.181 315.306 262.778C317.769 266.335 319.084 269.326 319.084 273.944C319.084 277.681 319.579 282.115 321.084 285.5C322.351 288.351 324.084 290.89 324.084 294M83.0837 221C90.6646 220.158 92.0837 212.427 92.0837 206.5C92.0837 198.514 93.2848 188.351 101.084 184.222C108.409 180.344 114.085 167.486 115.139 159.056C115.717 154.437 120.113 145.525 122.639 141.556C125.633 136.852 128.696 138.031 133.584 136.944C138.162 135.927 141.091 129.168 144.084 126C147.896 121.964 150.093 116.697 153.862 112.778C157.808 108.674 159.752 102 166.028 102C170.626 102 177.059 95.817 179.639 92.5C186.838 83.245 198.274 70.466 210.862 70C220.195 69.654 228.076 73.015 233.084 63M241.084 53C244.129 53 246.836 55 250.084 55C253.767 55 256.707 49.8209 259.306 47.2222C264.076 42.4523 274.708 47.8362 279.695 48.9445C288.534 50.9086 293.346 58 303.084 58C315.674 58 327.329 54 340.084 54C344.793 54 350.47 52.789 354.139 56C357.62 59.046 363.121 60.926 367.528 62.222C372.99 63.829 378.655 67.301 384.528 63.944C388.744 61.536 397.484 60.138 402.528 61.056C410.608 62.525 413.56 78 422.639 78H435.306C439.635 78 441.259 75 446.084 75M67.0837 232C67.0837 238.378 72.2166 247.803 65.0837 252.389C59.4628 256.002 60.4743 266.375 62.5837 272C65.4484 279.639 67.3232 287.618 67.0837 296C66.9439 300.892 64.2465 305.665 64.0837 310.222C63.9476 314.035 63.9522 317.963 64.0837 321.778C64.306 328.224 70.4538 334.894 71.0282 341.5C71.8415 350.853 72.0837 360.054 72.0837 369.5C72.0837 376.184 78.3539 379.431 79.0837 386C79.5858 390.519 79.0837 394.725 79.0837 399M75.0837 424C78.7389 424.406 83.3522 427.58 86.8615 429C90.7909 430.59 93.9528 434.931 95.0837 438.889C97.2815 446.581 103.084 453.775 103.084 462C103.084 469.054 112.449 471.739 114.862 477.222C116.415 480.754 120.387 483.497 122.528 487C124.907 490.893 126.423 495.234 128.306 499C130.152 502.693 130.55 506.849 132.306 510.556C133.409 512.884 136.65 513.707 138.084 515.5C138.949 516.582 145.536 516.926 147.084 517C151.044 517.189 154.623 519 158.584 519C166.226 519 171.403 523.768 176.084 529C177.822 530.942 178.735 535.543 180.528 536.056C182.019 536.481 186.084 540.578 186.084 542M162.084 580C149.375 580 159.3 567.6 161.862 561.778C164.061 556.778 169.503 551 175.084 551M30.0837 417C27.6257 416.693 29.74 412.195 30.306 411C32.0112 407.4 34.5639 405.443 37.8615 403C40.6611 400.926 42.3141 399.273 45.8615 398.222C49.5646 397.125 50.1972 400 53.0837 400M44.0837 202C47.4671 202 56.4782 203.789 58.0837 207M177.084 153C177.084 149.338 176.6 145.43 177.584 141.889C178.662 138.007 177.746 131.246 180.139 128.056C185.508 120.897 189.252 119 198.528 119C205.715 119 210.346 119.872 214.528 126.444C218.201 132.217 219.084 136.111 219.084 143C219.084 156.389 210.152 164.274 197.084 165C193.884 165.178 186.857 165.633 184.306 163.778C180.797 161.226 179.53 157.298 176.084 155M140.084 347C136.216 346.033 140.246 329.283 141.417 327.222C144.626 321.575 148.271 316.732 154.528 314.944C158.049 313.939 165.417 311.091 168.861 314.222C172.682 317.695 176.084 321.098 176.084 326.5C176.084 331.022 176.777 335.552 174.584 339.5C172.221 343.753 166.438 347.045 162.084 349.222C156.068 352.23 144.711 354.941 140.084 348M153.084 419C150.486 419.289 148.93 435.074 149.084 438C149.407 444.14 155.294 447.509 160.084 449.778C165.045 452.128 177.242 450.401 182.084 448.222C189.571 444.853 192.725 439.973 194.028 431.5C195.762 420.232 191.377 407 178.528 407C171.514 407 166.191 408.184 159.639 410.056C156.729 410.887 151.084 416.65 151.084 420M236.084 385C221.247 401.691 241.687 420.66 259.639 412.5C266.629 409.323 274.347 394.739 266.028 388.5C259.964 383.952 253.466 385 246.139 385C243.015 385 236.711 383.746 235.084 387M93.0837 269C89.186 270.299 86.7559 286.692 87.5837 290.5C89.0296 297.151 93.9043 300 100.584 300C107.882 300 111.684 300.399 117.084 295C121.088 290.996 122.118 286.199 123.306 281C123.886 278.464 125.46 269.144 122.028 268C119.723 267.232 119.723 264.433 117.084 264.056C113.974 263.611 110.771 263.473 107.639 263.056C102.469 262.366 99.8086 263.844 95.558 266.206L95.5282 266.222C94.258 266.928 93.419 268.071 92.0837 268.778C90.4482 269.644 91.6642 271.21 90.0837 272M217.084 212C216.37 212.089 215.76 213.134 215.246 214.685M215.246 214.685C215.191 214.789 215.137 214.893 215.084 215M320.084 185C313.427 187.421 314.797 198.298 315.139 203.611C315.547 209.923 320.89 218.6 328.084 219C332.536 219.247 339.901 221.561 343.584 218.444C349.225 213.671 351.084 206.538 351.084 199.444C351.084 190.998 350.81 180 339.584 180C335.333 180 330.032 179.115 326.084 180.778C323.689 181.786 321.924 184 319.084 184M158.084 211C160.447 214.249 157.841 222.893 161.528 225C163.008 225.846 163.084 227.467 163.084 224.5V219C163.084 214.771 161.756 210.993 166.473 209.944C170.507 209.048 172.084 200.732 172.084 197.5C172.084 188.754 165.609 177.414 159.639 171.444C157.27 169.075 154.277 161.483 154.084 158C153.863 154.034 152.311 149.986 150.306 155.778C149.375 158.468 145.888 165.017 143.639 166.944C142.784 167.677 142.606 170.325 142.084 171.5C140.489 175.088 139.049 177.952 137.862 181.778C135.311 189.998 135.399 197.858 141.139 204.556C144.158 208.078 147.948 206.6 150.862 209.222C151.982 210.231 155.787 212.523 154.862 211.333C153.738 209.889 151.675 208.717 151.084 206.944C149.585 202.45 147.084 200.989 147.084 195.778C147.084 190.107 149.348 187.206 151.084 182M315.084 158C315.084 152.445 317.924 147.423 318.084 142C318.332 133.545 316.066 127.512 311.639 120.556C307.658 114.299 304.793 108.598 299.639 103.444C295.953 99.758 293.544 94.905 289.862 91.222C288.633 89.994 286.481 87 284.584 87C281.958 87 283.084 92.108 283.084 94V115C283.084 123.962 277.79 142.328 285.639 149.056C287.831 150.934 288.298 153.139 291.084 154.778C293 155.905 294.75 156.353 296.639 157.556C298.218 158.56 301.351 159.783 303.084 160C303.531 160.056 304.135 160.713 304.558 160.801M304.558 160.801C305.27 163.336 306.568 165.554 308.862 167.222C310.159 168.166 318.455 176.949 320.028 171.444C321.046 167.881 313.601 164.275 312.084 162M158.084 328H159.084M150.084 341H152.084M161.084 340H164.084M97.0837 285V286M100.084 278H102.084M107.084 273C108.017 273.104 108.339 273.503 109.084 274M107.084 288V290M110.084 284C111.005 283.885 110.746 283.675 111.084 283M167.084 437H168.084M161.084 426V430M168.084 426L170.084 424M171.084 417H174.084M175.084 428V431M239.084 399V402M245.084 396H246.084M246.084 402V404M254.577 392.84C256.015 392.84 256.191 393.647 257.255 394.179M254.577 401.546C254.501 402.225 254.121 402.912 253.907 403.555M181.585 141.722C182.815 141.722 183.21 141.911 183.594 143.061M196.987 135.695V135.026M203.683 145.74H204.353M187.612 155.115C188.751 155.115 189.786 155.455 190.291 154.445M192.299 142.392C192.299 143.322 192.464 143.644 192.969 144.401M211.05 136.365V135.695M230.469 218.732L231.139 219.401M222.434 226.767V228.107M163.505 333.911V333.241M147.433 331.902C147.501 330.811 147.894 330.479 148.772 329.893M228.46 238.821V240.16M230.469 228.776V230.116M238.505 228.776V232.125M235.157 240.16C235.256 240.954 236.597 241.6 237.166 242.169M322.881 196.633H323.55M324.22 206.008H324.89M330.247 188.598C332.066 188.598 331.751 189.35 332.926 189.937M332.256 201.991C332.351 201.23 333.02 200.939 333.595 200.651M334.265 211.366H334.934M339.622 194.624C340.097 194.684 340.545 195.086 340.961 195.294M342.301 104.892C342.376 105.644 342.693 106.208 342.97 106.901M334.934 114.936V117.615M334.934 122.972H336.274M342.97 132.347C344.109 132.233 344.741 131.462 345.649 131.008M347.658 117.615H348.327M359.711 112.927C360.391 113.003 361.078 113.383 361.72 113.597M355.694 127.66C355.753 127.185 356.155 126.736 356.363 126.32M234.487 19.8463C237.314 19.8463 240.997 20.3188 241.184 23.8642C241.338 26.795 243.862 29.4553 243.862 32.5696M292.077 322.527C286.657 322.527 280.018 324.961 274.815 326.396C269.957 327.736 264.237 325.956 259.227 326.582C257.615 326.784 256.024 328.15 254.428 328.703C252.469 329.381 250.532 329.353 248.587 330.228C246.629 331.109 244.011 331.789 241.853 331.902C239.54 332.024 238.156 333.786 235.975 334.432C231.917 335.634 228.869 336.368 224.443 336.59C222.7 336.677 220.454 336.98 218.713 337.297C217.044 337.6 216.496 339.509 214.733 339.901C213.448 340.186 213.658 341.391 212.389 342.096C210.506 343.142 211.05 345.456 211.05 347.267C211.05 350.284 211.719 353.084 211.719 356.009M190.291 364.045C186.157 360.371 183.841 361.63 179.167 362.669C176.632 363.232 174.476 364.689 171.912 365.422C170.186 365.915 168.807 368.063 166.481 368.063C164.567 368.063 163.073 366.817 161.496 366.724C158.242 366.532 155.871 367.918 152.939 369.105C149.929 370.323 148.501 377.438 146.094 377.438M123.326 384.135C120.226 381.598 116.363 381.456 112.611 381.456C109.688 381.456 108.381 383.826 105.915 384.135C103.144 384.481 100.355 385.474 97.2095 385.474C94.8485 385.474 92.2567 386.674 91.1827 388.822M278.684 286.366C276.902 284.584 275.608 283.996 273.029 283.725C270.28 283.435 268.805 282.899 266.258 282.051C263.035 280.976 260.106 281.553 257.553 279C253.558 275.005 252.757 271.056 246.764 270.257C244.268 269.925 242.432 268.955 239.844 268.955C238.389 268.955 235.891 269.43 234.487 268.806C231.432 267.449 229.844 265.651 227.456 263.263C223.048 258.855 215.945 257.417 210.38 255.562M180.915 252.214C181.759 251.767 185.913 250.143 184.636 248.866C182.135 246.365 178.597 246.82 175.558 246.038C173.84 245.597 163.861 243.521 163.505 241.5C162.402 235.252 154.417 232.731 149.107 229.781C146.495 228.33 142.665 225.261 139.695 224.721C137.431 224.31 135.773 222.577 133.705 222.117C132.077 221.755 130.591 221.917 128.943 221.41C124.622 220.081 120.175 218.474 115.848 217.392C114.178 216.975 106.487 216.528 105.915 215.383M249.22 66.722C252.797 67.437 258.143 75.617 260.529 78.329C262.164 80.186 264.41 81.642 265.142 84.132C266.123 87.467 267.97 90.201 267.97 93.88V100.204M271.318 124.981C272.321 124.981 272.888 124.773 273.327 125.651M286.72 168.508C289.24 169.012 290.972 174.112 292.449 175.8C293.593 177.107 294.359 176.935 294.793 178.888C295.119 180.353 295.806 182.166 296.43 183.538C297.83 186.619 299.596 188.904 301.117 191.946C303.27 196.252 302.07 200.997 303.759 205.339C304.948 208.397 304.076 211.874 302.94 214.714C301.404 218.555 303.029 224.401 305.768 227.139C308.046 229.418 311.497 230.94 311.497 234.654C311.497 235.564 312.066 238.748 310.827 238.821C309.251 238.914 309.171 239.138 308.149 240.16M191.63 530.118C191.63 526.802 193.41 523.757 194.643 520.743C196.116 517.142 196.868 516.715 199.666 514.716C204.62 511.177 208.504 509.856 211.57 504.002C214.24 498.906 215.801 492.201 219.383 487.595C221.591 484.757 222 478.198 226.786 479.262C229.319 479.825 230.992 480.721 233.818 480.564C235.801 480.454 236.961 474.498 237.315 473.123C237.859 471.009 237.836 469.052 237.836 466.836C237.836 462.762 238.288 461.507 240.737 458.168C241.446 457.202 241.682 456.076 242.672 455.266C243.323 454.734 244.387 455.611 244.532 454.448C244.724 452.908 246.133 451.366 246.392 449.611C246.673 447.708 246.504 446.066 247.062 444.254C247.939 441.403 248.349 439.577 249.889 436.739C250.72 435.209 251.748 434.092 253.089 433.019C254.483 431.904 254.444 429.983 255.916 429.001M272.657 406.903C274.529 404.563 275.531 400.388 276.675 397.528M141.406 576.324C140.949 575.51 139.828 574.98 139.546 574.166C138.965 572.487 139.397 570.106 139.397 568.362C139.397 565.543 142.076 563.591 142.076 560.922M131.362 572.975C128.531 572.268 130.335 563.749 130.692 562.261C131.738 557.892 133.342 554.931 136.049 551.547M119.978 569.627C119.715 566.998 119.108 564.649 119.345 561.926C119.8 556.699 123.126 552.98 126.004 548.868M108.594 560.922C108.594 551.234 111.923 545.539 118.638 538.823M97.2095 552.886C97.2095 547.742 97.8837 543.505 101.227 539.493M35.6019 453.108C35.6019 444.673 43.7813 442.257 50.3341 440.385M41.6287 464.492C42.534 454.535 59.4503 448.421 67.745 448.421M49.6645 476.546C51.464 473.487 57.9708 468.51 61.7182 468.51M56.361 493.957C58.7737 489.131 62.7454 483.473 67.745 480.973C70.209 479.741 72.9059 479.218 75.4459 478.183C77.9422 477.166 80.3554 475.207 83.1469 475.207M119.978 489.939C112.665 491.269 105.113 496.229 101.897 502.662M111.272 481.903C107.786 482.27 104.125 485.033 101.897 487.26M13.5035 397.528C13.8741 394.007 18.907 389.503 21.9113 388.301C25.8158 386.74 31.4 384.135 35.6019 384.135M10.8249 384.804C11.2442 379.563 21.4991 375.673 25.5944 374.164C31.1491 372.118 39.0187 371.411 44.977 371.411M10.1553 370.742C11.9902 370.334 13.8307 368.485 15.8845 367.914C18.7374 367.122 21.2372 365.81 24.2179 365.385M69.7539 346.634C67.6249 346.398 66.2403 342.776 64.3968 341.649C60.5881 339.322 58.1484 336.538 53.3848 335.585C49.1372 334.736 45.4797 333.241 41.1079 333.241H32.9233M63.7271 329.893C63.4366 327.278 55.9524 325.678 53.8312 325.355C50.9681 324.918 47.8603 325.206 44.977 325.206M69.7539 356.679C66.1273 356.679 62.992 353.331 59.0396 353.331M59.7092 312.482C52.6747 305.448 43.5357 307.795 34.9322 307.795M4.79809 293.732C5.08417 291.158 9.01527 289.566 10.9737 288.524C13.9804 286.925 18.9223 286.81 22.2833 285.994C24.015 285.574 25.7987 285.696 27.5661 285.696M1.44986 282.348C1.44986 278.285 6.49228 275.576 9.63444 273.643C14.1351 270.873 22.2201 270.295 27.5661 270.295M2.1195 264.937C3.44606 264.606 5.11565 262.566 6.2118 261.626C9.26317 259.011 13.8534 257.671 17.5586 256.306C24.0142 253.928 30.8646 254.223 37.6108 254.223M7.47669 244.178C10.4363 241.959 17.0005 241.225 20.6092 240.904C24.0058 240.603 27.5002 240.83 30.9144 240.83M50.3341 170.517C54.3482 170.517 58.8865 172.373 61.7182 175.205M59.7092 156.454C59.9483 158.367 68.5975 159.88 70.4236 161.514C71.5547 162.526 72.0943 162.502 73.1022 164.044C73.5776 164.771 73.7534 165.486 74.4415 165.83M67.745 147.079C71.1124 147.079 75.1592 146.425 78.3849 147.451C80.7385 148.2 82.4681 150.422 84.4862 151.767M118.638 147.749C118.638 140.868 112.333 133.731 107.254 129.669M126.674 137.704C126.674 130.463 121.162 122.225 114.62 118.954M136.719 131.677C136.719 122.439 134.086 115.395 127.344 108.835C125.439 106.982 122.395 105.92 120.684 103.924C119.869 102.972 118.467 103.21 117.969 102.213M146.094 119.624C146.094 118.455 144.998 114.054 144.085 113.597M136.719 66.722C137.052 67.721 139.593 69.405 140.439 70.405C141.504 71.663 142.042 73.172 143.415 74.088M147.433 60.025C148.03 62.86 152.315 66.672 154.39 68.656C156.454 70.631 157.833 73.813 158.817 76.469C160.399 80.74 161.496 84.917 161.496 89.49M158.147 51.32C158.431 53.87 162.127 56.088 163.505 58.016C165.043 60.17 166.77 63.988 168.862 65.382M203.684 69.4C203.684 61.661 202.899 55.712 198.326 49.3108M215.068 70.07C217.439 66.809 216.44 59.758 216.407 56.082C216.356 50.4407 213.831 46.6118 211.459 41.6842C210.021 38.6975 207.381 34.0837 204.353 32.5696M266.63 7.7926C267.786 10.1038 272.389 19.9805 268.639 21.8552M280.023 7.7926C280.023 11.2647 281.363 14.4411 281.363 18.135C281.363 20.8892 281.354 23.2292 280.693 25.8731M299.443 57.347C300.541 56.859 301.509 53.976 302.122 52.882C303.809 49.8691 304.085 45.9984 304.131 42.6143C304.203 37.2461 303.391 30.9143 300.113 26.5428M305.47 56.677C311.877 55.965 312.166 42.4626 312.166 37.9268C312.166 31.432 311.556 24.0413 309.488 17.8373M318.193 56.677C319.176 56.309 321.041 51.854 321.393 50.7989C321.936 49.1687 321.542 47.0006 321.542 45.2929M342.97 7.7926C344.047 14.0123 346.014 21.4902 340.961 26.5428M353.015 11.8105C354.532 14.0862 354.903 18.5987 355.284 21.2228C356.026 26.3342 355.694 31.6224 355.694 36.7735C355.694 40.0872 354.261 42.0695 352.345 44.6233M367.747 11.1409C367.908 14.1928 369.756 16.0267 369.756 19.1766C369.756 21.8401 369.591 24.0289 367.747 25.8731M387.167 61.364C398.752 55.231 396.542 40.0862 396.542 29.2214M399.89 60.025C402.549 58.305 403.933 53.476 404.913 50.6129C406.474 46.0475 407.256 41.7637 407.256 36.9595C407.256 31.1158 407.773 25.4138 405.917 19.8463M413.283 68.061C415.708 65.636 416.627 60.839 417.673 57.644C418.811 54.169 419.31 49.6163 419.31 45.9626M447.435 24.5338C447.435 33.5285 448.332 41.6385 444.757 49.9804M69.7539 519.404C69.7539 514.096 70.3532 505.364 76.4504 503.332M154.799 522.082C152.029 523.533 148.593 524.271 146.391 526.472C145.004 527.859 143.681 529.718 142.076 530.788M82.4772 432.349C80.0257 432.349 76.3261 432.598 75.1111 435.028M91.1827 436.367C90.9608 438.142 83.092 441.779 81.1379 443.733M63.7271 286.366C61.4415 286.097 59.5975 283.976 56.9934 283.65C54.0111 283.278 51.4566 282.348 48.3252 282.348M59.7092 274.312C58.0841 272.687 56.2551 273.255 54.352 272.304M65.0664 241.5C62.8847 236.591 61.2238 236.019 56.361 234.803M209.041 310.473C210.548 307.458 212.543 303.046 209.71 300.057C205.642 295.763 201.122 295.146 196.02 292.765C192.17 290.968 187.086 291.823 183.073 290.533L182.906 290.479C179.294 289.318 176.037 288.271 172.582 286.701C167.807 284.53 171.426 291.608 172.842 293.732C175.447 297.64 175.187 303.909 178.237 307.497C179.774 309.305 179.979 311.546 181.846 313.412L185.305 316.872C189.267 320.833 191.927 321.188 197.359 321.188C199.422 321.188 201.934 321.597 203.944 321.151C205.383 320.831 200.465 318.39 200.186 318.212C198.798 317.319 192.753 313.86 193.676 311.552C193.929 310.921 206.631 320.662 207.664 321.523C210.693 324.047 220.425 326.182 220.425 320.518C220.425 317.798 216.001 317.17 213.393 317.17C211.018 317.17 209.352 316.452 208.371 314.491M104.576 362.706C102.731 362.706 99.7372 363.339 99.0696 361.069C98.416 358.847 96.5954 354.439 98.9208 352.959C102.885 350.436 110.47 349.652 107.924 343.286M97.8791 334.581C94.8207 334.241 94.5309 331.642 94.5309 329.224M123.326 311.143C127.592 311.143 131.094 312.107 133.668 308.13C136.422 303.874 133.083 303.079 131.51 299.759C128.023 292.397 138.669 288.618 143.415 287.036M238.505 307.125C243.716 309.577 249.942 312.43 254.577 307.795M121.317 431.01C121.317 428.128 122.26 427.047 123.326 424.648C123.894 423.37 126.441 423.018 126.637 424.686C127.097 428.597 125.453 433.167 128.013 436.367M143.415 468.51C145.326 475.517 153.422 472.099 156.808 477.179C158.318 479.444 158.147 480.707 158.147 483.615C158.147 485.97 156.348 489.479 158.147 491.278M204.353 404.894C204.51 403.017 204.285 396.314 206.511 395.668C208.289 395.151 213.901 395.874 214.547 393.882C215.68 390.388 216.856 387.025 217.746 383.465M273.997 368.733C274.629 371.262 278.008 368.389 278.535 367.393C280.129 364.384 282.143 361.535 284.041 358.688M278.014 258.241C275.153 255.53 267.233 250.422 268.788 245.369C269.909 241.725 270.648 237.975 270.648 234.134M192.969 208.017C189.553 207.638 190.106 203.433 191.258 201.321C191.951 200.05 194.612 198.403 195.945 198.047C197.25 197.699 199.02 198.594 199.666 197.303M235.827 189.937C237.131 189.774 238.214 185.743 238.505 184.58M235.827 143.061C233.666 138.981 229.8 136.969 229.8 132.012C229.8 130.184 231.443 128.17 232.776 127.027C233.532 126.379 234.101 123.938 234.487 122.972M219.085 96.186C217.219 94.506 214.072 93.508 211.57 93.508H208.222C205.983 93.508 206.818 93.927 206.213 95.74C204.112 102.043 201.722 105.561 194.978 105.561M334.934 254.223C334.655 251.428 331.228 244.88 333.967 243.137C335.82 241.958 339.361 241.352 340.292 239.491M302.791 74.757C303.029 76.892 307.193 79.322 308.818 80.263C310.614 81.303 311.045 81.524 313.506 81.454C319.795 81.274 323.451 74.871 329.577 76.097M393.194 98.865C389.468 99.279 389.731 106.557 390.515 108.909M361.72 157.794C359.802 157.794 358.457 159.09 356.512 159.133C353.683 159.196 351.499 158.934 348.997 160.324C345.462 162.288 348.183 163.784 351.006 164.49M376.453 166.499C375.486 166.62 372.636 169.98 372.398 170.815C372.188 171.549 370.888 171.77 370.575 172.675C370.183 173.805 370.426 175.367 370.426 176.544M359.042 193.285C359.042 194.648 359.143 196.014 360.381 196.633M215.246 214.685C213.758 219.181 213.084 227.935 213.084 230.056C213.084 238.411 219.801 244.468 226.639 248.222C231.455 250.866 239.894 255.616 243.584 249.056C246.589 243.713 247.084 238.659 247.084 232.444C247.084 222.371 247.802 207.516 233.862 207C229.561 206.841 225.789 204.865 222.473 207.444C219.588 209.688 217.003 211.378 215.246 214.685ZM304.558 160.801C304.784 160.848 304.958 160.733 305.028 160.278C305.436 157.624 305.084 154.689 305.084 152C305.084 149.335 306.432 136.543 302.084 136C301.247 135.895 296.935 133.347 301.139 136.5C303.038 137.924 304.084 141.156 304.084 143.5C304.084 149.258 303.119 155.675 304.558 160.801ZM347.084 96C340.023 96 335.916 97.63 331.084 103C327.004 107.533 325.084 113.687 325.084 119.5C325.084 125.801 325.905 132.466 332.528 135.778C339.257 139.142 348.585 139 356.028 139C359.985 139 361.937 138.122 365.584 137C370.402 135.517 369.969 131.925 373.028 128.611C376.652 124.685 376.299 111.46 373.528 107.222C370.701 102.898 368.506 99 362.584 99C357.912 99 350.923 98.559 347.084 96ZM196.084 496C191.819 495.052 190.084 477.742 190.084 474C190.084 467.389 190.154 463.674 193.306 458C194.196 456.398 196.208 455.818 197.639 455C200.628 453.292 200.084 455.486 200.084 458C200.084 460.393 197.127 468.599 199.306 470.778C199.561 471.032 200.869 468 201.028 467.444C201.642 465.295 202.621 462.795 203.028 460.556C203.405 458.482 205.084 458.252 205.084 455.778V449C205.084 444.439 205.05 439.293 206.584 435C207.624 432.087 207.318 432 210.584 432C213.159 432 215.084 431.446 215.084 434.5C215.084 438.491 211.278 441.5 211.084 445C210.964 447.152 211.084 449.343 211.084 451.5C211.084 454.33 214.211 451.818 215.084 454C215.532 455.12 218.224 455.696 219.306 456.778C221.131 458.602 221.084 459.315 221.084 462C221.084 465.136 221.505 470.299 218.528 472C216.745 473.019 215.543 474.676 214.306 476.222C213.104 477.725 211.153 479.094 210.306 481C208.917 484.124 205.366 486.292 203.584 489.5C201.918 492.499 204.723 497.805 202.306 500.222C198.52 504.008 197.064 499.921 196.084 496Z" stroke="#997740" stroke-linecap="round"/>
</svg>
