<svg width="350" height="1950" viewBox="0 1350 631 624" fill="none" xmlns="http://www.w3.org/2000/svg">
    <path d="M6.47302 447.159C6.47302 450.312 7.57902 453.177 9.08502 455.893M9.08502 455.893C6.42002 454.372 3.735 452.905 1 451.537M2.09497 452.632C2.09497 447.201 0.774 441.111 5.987 437.794C26.275 424.883 51.934 421.655 74.949 416.509C106.739 409.401 138.768 405.116 171.276 402.826C196.846 401.026 222.789 398.995 248.387 398.995M424.62 400.09C438.52 386.188 457.23 375.899 473.03 364.332C498.28 345.853 523.28 326.101 546.74 305.404C555.94 297.286 565.95 290.152 575.2 282.113C582.27 275.963 590.43 271.599 597.57 265.693C602.17 261.89 607.66 254.339 613.87 258.335C622.18 263.678 629.06 275.216 624.33 284.667C620.12 293.089 608.27 299.764 600.86 304.857C590.74 311.811 581.54 320.877 571.06 327.236C560.42 333.688 551.36 341.696 541.75 349.493C531.87 357.507 520.01 363.497 509.46 370.535C493.13 381.418 477.08 393.342 460.62 403.921C454.41 407.915 446.87 414.14 439.95 416.448C432.95 418.782 423.67 424.343 418.06 429.158C413.97 432.664 407.51 433.505 403.76 437.246C401.39 439.619 396.02 442.302 392.98 443.826L392.88 443.875M410.39 357.399C410.73 354.335 415.18 348.984 417.02 346.453C420.7 341.39 422.7 335.711 425.72 330.276C433.84 315.654 442.1 301.3 448.95 286.005C458.65 264.327 470.41 244.01 480.45 222.759C482.73 217.93 486.86 211.309 487.02 205.853C487.11 202.753 487.14 193.734 482.64 193.204C479.92 192.884 479.21 190.291 476.19 189.859C474.26 189.583 472.43 187.984 471.08 186.636C465.1 180.649 455.38 194.609 453.08 199.772C448.75 209.524 440.35 218.384 434.96 227.685C429.78 236.628 425.4 245.904 420.24 255.112C413.83 266.558 409.35 278.617 403.28 290.079C399.04 298.089 395.05 307.066 390.14 314.708C386.28 320.712 382.63 328.463 379.74 334.959C377.26 340.537 376.48 347.965 373.11 353.02C371.03 356.151 371.12 358.834 369.65 361.778C368.35 364.376 366.58 365.902 365.51 368.832C363.64 373.995 359.71 379.24 356.76 383.67M464.03 367.251C462.2 365.626 459.4 363.552 457.22 362.629C453.73 361.152 450.81 361.586 447.37 360.44C441.74 358.564 434.9 356.304 428.76 356.304C423.52 356.304 416.26 355.004 411.24 356.548C401.87 359.431 394.07 365.683 384.97 369.44C360.35 379.61 330.484 392.859 330.484 424.172M80.908 484.376C80.751 483.115 79.525 483.04 78.719 482.187C77.327 480.714 77.723 478.524 77.077 476.714C75.989 473.667 76.53 470.063 76.53 466.862C76.53 459.232 84.666 451.807 89.179 446.064C92.248 442.158 97.907 440.911 101.949 438.402C107.388 435.026 116.292 432.524 122.504 431.834C138.128 430.098 153.563 429.398 169.33 429.645C185.382 429.896 197.384 435.639 211.291 442.78C219.238 446.861 222.304 452.942 228.075 458.713C232.734 463.372 235.753 469.683 239.143 475.011C241.95 479.421 245.103 484.245 245.103 489.85M571.3 441.686C571.3 432.432 571.66 426.79 567.47 419.246C564.45 413.809 553.15 406.757 547.46 404.711C539.64 401.896 530.28 400.09 521.98 400.09C517.36 400.09 503.49 399.988 501.25 404.468M520.95 402.279C520.51 398.295 511.15 394.715 508.06 392.184C505.01 389.694 496.51 386.954 492.49 386.954M200.223 435.118C201.094 431.636 211.312 427.384 214.453 425.814C222.143 421.969 230.228 420.191 237.988 416.996C248.925 412.492 263.5 412.131 275.206 412.131C280.3 412.131 286.694 412.47 291.564 413.833C294.879 414.762 298.15 415.907 301.416 416.996C304.278 417.95 307.14 417.069 309.747 418.698C316.416 422.866 324.463 424.264 330.971 429.037C334.967 431.967 341.205 438.181 345.81 439.496C349.5 440.55 348.03 444.045 352.62 443.875C356.82 443.719 362.43 442.37 366.61 441.442C374.05 439.788 381.15 439.496 388.74 439.496C394.43 439.496 397.71 442.141 402.97 444.362C407.2 446.146 413.33 448.156 416.72 451.294C419.06 453.461 422.06 454.531 424.38 456.767C425.72 458.056 426.04 460.128 427.06 461.146C430.3 464.394 436.5 469.502 437.76 474.525M321.727 457.011C314.162 457.011 305.081 465.487 300.929 471.484C297.341 476.668 293.715 481.488 292.172 487.66M272.469 397.9H328.295M600.86 425.266C596.03 425.266 591.38 424.3 586.63 424.172C583.48 424.087 577.86 425.259 575.68 423.077M555.98 429.645C543.1 429.645 537.3 436.843 525.57 441.686C516.63 445.381 510.98 454.879 502.34 459.2M540.65 421.982C531.14 421.982 525.56 422.636 517.18 426.969C508.15 431.639 499.24 438.312 491.4 444.726C486.4 448.817 480.54 452.237 476.68 457.497C474.79 460.078 472.86 462.412 470.6 464.673M526.42 417.604C518.27 417.604 511.53 419.772 503.68 421.496C490 424.498 475.73 427.886 463.54 435.24C453.05 441.57 441.38 451.037 434.47 461.389M494.68 413.225C478.39 413.225 463.49 423.195 449.8 431.287C444.27 434.552 438.82 437.082 433.87 441.138C430.46 443.926 427.1 446.97 423.53 449.348M427.91 391.333C426.85 391.464 422 403.403 421.28 405.563C419.7 410.295 414.81 417.033 411.49 420.827C405.39 427.79 396.05 435.118 386.31 435.118M411.49 390.238C411.49 399.45 402.41 412.259 396.41 418.455C392.12 422.875 385.45 430.739 378.65 430.739M345.81 430.739C356.42 425.712 367.13 419.658 376.52 412.617C380.18 409.873 387.41 404.05 387.41 398.995M341.431 414.32C349.78 401.107 368.62 397.517 382.54 394.373C391.05 392.453 398.97 389.666 407.11 386.954M377.55 386.954C381.51 385.965 385.38 382.426 389.11 380.63C394.3 378.132 399.94 377.22 405.65 377.102C415.65 376.896 425.55 376.008 435.57 376.008M426.81 368.345C431.3 367.937 435.36 367.251 439.95 367.251M223.21 439.496C234.038 429.239 255.252 426.361 269.489 426.361C278.547 426.361 286.761 428.566 295.456 430.739M228.684 450.443C236.522 444.564 249.499 443.56 258.786 442.233C268.858 440.794 278.745 440.591 288.888 440.591M307.497 430.739C311.542 434.785 313.255 443.306 310.781 448.254M303.119 443.875C303.119 446.643 302.024 448.774 302.024 451.537M257.144 457.011C263.068 457.011 274.346 455.516 277.881 461.997C280.73 467.22 282.321 468.368 282.321 474.525M256.049 466.862C258.945 469.758 260.769 471.923 262.617 475.619M317.349 483.282C317.349 477.155 328.214 467.619 333.768 465.768M340.336 478.903C341.143 470.833 350.36 464.586 356.76 461.389M352.38 452.632C369.37 452.632 386.69 461.764 398.35 473.43M385.22 450.443C390.36 455.301 399.3 459.847 401.64 466.862M358.94 472.335C360.78 474.173 363.05 475.757 364.42 477.809M334.863 449.348V457.011M180.52 443.875C184.241 447.258 189.245 448.238 193.655 450.443C199.373 453.302 204.621 456.849 209.527 460.903C215.767 466.057 215.185 471.428 217.737 477.809M88.571 473.43C96.144 465.015 104.815 461.42 115.231 457.101L115.45 457.011C123.23 453.785 133.595 448.254 142.208 448.254M113.747 478.903C114.962 472.828 130.752 467.585 135.701 466.437C141.746 465.033 149.064 463.578 155.343 463.578M150.965 476.714C153.936 476.444 156.853 475.242 159.722 474.525M152.059 444.97C158.769 445.417 165.224 447.653 171.033 450.99C175.053 453.299 182.333 456.552 184.655 460.781C187.259 465.524 188.182 473.573 188.182 478.903M172.857 466.862C173.242 470.712 176.567 473.798 177.236 477.809M97.328 452.632C100.532 449.072 104.143 447.035 108.274 444.97M163.006 599.313C192.494 599.313 222.195 604.164 251.671 605.637C280.17 607.062 309.124 606.194 337.66 605.881C353.08 605.711 367.91 600.655 383.27 600.407C388.2 600.328 393 599.579 397.87 598.705C405.11 597.404 412.63 597.265 419.76 595.968C429.84 594.135 439.3 591.569 448.16 586.177C459.63 579.192 468.14 569.688 478.26 562.095M207.886 441.686C203.673 434.525 192.859 428.062 185.75 423.928C176.064 418.297 166.48 416.509 155.343 416.509C144.43 416.509 133.923 418.818 124.45 424.415C117.595 428.466 110.364 433.691 102.801 436.213M118.126 429.645C104.774 429.645 91.88 439.098 78.719 439.496C70.853 439.735 53.7 439.181 49.711 447.159C45.636 455.309 50.38 459.287 55.184 465.16C59.58 470.532 70.446 473.304 73.246 478.903M76.53 479.998C67.331 474.981 58.904 459.804 67.773 450.443C76.461 441.271 87.98 435.703 97.267 427.577C111.153 415.427 132.15 431.834 146.586 431.834M142.208 435.118C155.016 435.484 164.154 446.562 175.29 451.537C185.937 456.295 193.419 463.154 205.575 464.673C213.456 465.658 221.181 465.921 229.17 465.768C233.784 465.679 238.704 464.135 242.914 462.241C246.006 460.849 245.968 459.539 248.448 457.68C260.534 448.615 234.514 438.748 227.589 437.064C222.887 435.92 217.614 435.659 213.115 434.023C210.752 433.164 205.204 433.806 203.507 432.321C200.519 429.706 193.92 428.25 192.561 424.172M193.655 428.55C195.428 428.107 198.37 423.67 200.223 422.469C205.365 419.136 211.69 415.448 217.19 412.8C224.845 409.114 233.001 406.806 240.725 403.374C256.977 396.15 275.904 402.535 290.044 410.489C300.24 416.224 312.903 421.915 321.18 430.192C329.762 438.774 344.19 440.591 355.66 440.591M330.484 478.903C331.697 475.265 335.933 473.522 338.512 470.998C341.355 468.215 343.716 465.085 346.9 462.605C351.65 458.914 356.76 455.593 361.99 452.389C368.71 448.265 372.5 448.669 380.35 448.193C389.59 447.633 398.83 443.989 408.2 445.03C420.29 446.373 430.91 453.126 442.14 456.767C448.22 458.74 453.25 463.978 456.91 469.052C460.25 473.669 459.65 477.067 459.65 482.734C459.65 488.797 455.13 493.528 449.8 494.289C447.51 494.616 443.21 496.762 441.04 494.836C437.84 491.993 434.42 489.475 431.19 486.566C421.07 477.454 402.33 472.735 391.78 483.282M464.03 365.061C461.61 365.061 456.15 361.251 454.18 359.588C451.06 356.96 446.68 356.49 443.47 353.872C439.48 350.601 430.15 349.737 425.11 349.737C404.69 349.737 379.82 347.124 362.72 359.345C358.75 362.178 354.29 364.31 351.28 368.589C348.02 373.218 342.258 376.691 339.485 381.481C336.686 386.315 332.596 390.173 329.998 395.225C327.485 400.111 327.201 405.034 327.201 410.549C327.201 415.396 328.514 422.028 324.95 425.814C316.388 434.911 307.944 440.006 295.091 441.564C290.143 442.164 283.668 443.843 278.611 442.72C275.637 442.059 273.028 435.855 270.28 434.023M571.3 438.402C571.3 427.962 572.65 419.48 566.2 411.036C559.05 401.695 549.31 395.062 537.61 392.671C533.59 391.848 510.79 390.177 510 394.617C509.41 398.008 498.52 397.324 496.87 402.279M496.87 404.468C502 399.333 504.84 393.67 512.44 392.184C525.98 389.535 541.11 391.333 554.88 391.333C559.31 391.333 565.86 389.975 569.72 392.549C574.06 395.441 576.84 399.902 579.57 404.225C581.1 406.639 581.72 409.599 582.86 412.191C583.72 414.167 583.66 418.889 585.05 420.28C587.44 422.671 591.65 424.172 594.9 424.172C604.37 424.172 612.22 425.546 618.92 432.989C626.98 441.948 632.17 448.12 628.65 460.355C626.23 468.756 621.66 475.363 621.66 484.376M258.811 367.19C261.987 356.868 272.164 347.355 277.037 337.61C282.98 325.724 283.25 312.773 285.029 299.964C286.503 289.349 283.441 275.801 273.601 269.787C262.191 262.815 248.269 254.449 234.61 254.251C221.486 254.061 210.068 253.509 202.64 266.65C198.332 274.272 202.028 290.747 211.828 291.972C223.275 293.403 228.254 293.311 237.747 285.175C239.001 284.1 242.01 277.303 239.39 276.062C236.103 274.505 230.222 275.763 226.543 275.763M303.18 259.629C302.098 247.364 282.06 239.717 272.256 235.428C255.308 228.013 238.434 221.17 222.509 211.525C208.285 202.911 191.731 191.425 183.668 176.195C174.24 158.387 177.489 135.372 183.518 117.111C188.051 103.383 196.406 85.3178 213.396 86.2617C223.293 86.8115 233.387 86.6856 241.631 92.6108C250.993 99.3393 259.956 109.743 262.844 121.144C266.117 134.064 263.407 161.48 244.694 161.48C237.312 161.48 227.887 158.814 227.887 149.379M308.558 215.26C297.828 201.604 290.27 177.855 303.329 163.571C313.019 152.973 329.453 151.777 342.171 146.69C352.96 142.373 360.96 134.476 369.06 126.373C385.93 109.5 387.58 78.9935 386.46 56.7572C385.53 37.9712 370.29 21.9611 353.75 15.6002C338.13 9.59333 318.119 33.9162 312.591 45.5529C308.246 54.7005 304.914 62.8714 309.38 72.7419C312.673 80.0218 321.634 90.0687 329.472 92.6108C342.858 96.9519 349.11 92.7279 356.66 82.1535C364.03 71.8324 351.85 71.3974 344.86 71.3974M257.466 367.19C246.773 367.19 249.755 342.783 253.134 336.565C259.837 324.232 272.256 307.832 272.256 293.167C272.256 287.32 273.658 279.364 272.032 273.672C269.69 265.474 259.101 258.039 252.387 253.952C238.797 245.68 221.139 235.934 204.284 241.553C186.797 247.382 179.485 260.714 179.485 279.199C179.485 289.593 180.355 295.46 189.718 301.159C196.63 305.367 206.443 308.031 214.442 308.031C225.13 308.031 241.332 304.688 241.332 291.15C241.332 284.574 230.56 275.763 223.854 275.763M304.524 262.318C295.837 245.812 289.567 229.947 275.617 216.605C267.931 209.252 260.282 201.448 251.043 195.989C244.583 192.171 237.283 189.716 230.875 185.681C226.607 182.993 220.533 183.348 215.787 180.975C208.017 177.09 200.594 174.589 193.453 169.621C176.835 158.061 174.486 138.848 180.232 120.099C185.11 104.18 197.46 92.3443 213.919 90.2205C222.366 89.1306 234.246 86.8194 242.677 89.4736C253.265 92.8068 261.446 100.939 268.223 109.342C276.714 119.872 278.502 141.156 266.056 149.454C256.254 155.989 246.446 157.446 234.61 157.446M308.558 216.604C294.652 208.783 311.923 184.505 316.7 176.941C321.129 169.928 324.376 162.842 330.07 156.848C335.739 150.881 342.687 145.875 348.3 139.893C354.81 132.944 361.28 129.576 369.36 124.879C373.01 122.757 377.5 120.28 381.76 119.874C386.06 119.465 389.07 116.042 393.19 114.496C416.24 105.851 418.99 67.8858 412.83 48.5407C405.05 24.0969 388.38 7.26434 362.34 2.52859C346.75 -0.305485 330.045 0.223525 316.55 9.10175C295.613 22.8765 276.783 49.645 284.655 76.1779C289.375 92.0843 307.368 103.666 323.422 103.666C330.907 103.666 339.304 104.805 346.65 103.367C350.34 102.645 352.34 97.3494 354.27 94.5528C358.7 88.1532 361.16 80.7901 353.67 76.0285C347.56 72.1366 343.41 69.1232 336.793 74.0864M9.08502 455.893C10.452 458.361 12.15 460.705 13.649 463.031C20.255 473.282 27.731 483.488 35.42 492.951C48.183 508.659 62.183 523.788 76.469 538.074C87.868 549.473 97.786 562.39 109.308 573.528C118.642 582.551 127.458 594.471 138.985 600.955C165.412 615.82 194.092 617.202 223.819 620.658C241.968 622.769 260.763 622.3 279.037 622.3C297.351 622.3 316.114 623.499 334.376 622.239C348.54 621.263 362.66 619.936 376.82 619.077C387.3 618.442 397.85 618.709 408.2 616.827C420.4 614.61 432.43 613.058 444.33 609.712C456.82 606.198 469.5 597.516 478.87 588.792C503.35 565.995 530.83 545.023 550.51 517.702C561.58 502.325 571.98 485.675 580.06 468.504C582.76 462.763 585.63 457.152 588.57 451.537C591.28 446.369 595.45 440.799 597.33 435.361C597.88 433.787 601.99 425.782 601.47 425.753C598.45 425.585 597.48 429.409 594.53 429.645C592.15 429.835 590.46 433.509 587.48 434.023C583.88 434.644 578.82 439.776 575.44 441.686C568.84 445.413 561.7 448.221 554.88 451.537C535.61 460.915 512.32 464.558 491.4 468.565C444.7 477.506 398.07 484.112 350.67 487.904C328.722 489.66 307.217 491.834 285.118 492.039C263.046 492.243 241.051 494.228 218.954 494.228C181.9 494.228 143.845 493.534 107.179 488.512L106.94 488.479C82.231 485.094 56.923 481.627 34.447 470.389C25.585 465.958 17.434 460.66 9.08502 455.893Z" stroke="#997740" stroke-linecap="round"/>
</svg>
